<?xml version="1.0" encoding="utf-8"?>
<svg viewBox="0 0 400 120" fill="none" xmlns="http://www.w3.org/2000/svg" xmlns:bx="https://boxy-svg.com">
  <defs>
    <clipPath id="clip0">
      <rect width="640" height="105" fill="white"/>
    </clipPath>
  </defs>
  <rect width="400" height="120" style="stroke: rgb(0, 0, 0); fill: rgb(255, 255, 255); stroke-width: 0px;" bx:origin="0 0"/>
  <g clip-path="url(#clip0)" transform="matrix(0.504815, 0, 0, 0.504815, 68.825356, 35.105289)" style="">
    <path d="M195.9 34.2C195.6 31 194.2 28.5999 191.8 26.7999C189.4 24.9999 186.2 24.2 182.1 24.2C179.3 24.2 177 24.6 175.1 25.4C173.2 26.2 171.7 27.2 170.7 28.6C169.7 30 169.2 31.5 169.2 33.2C169.1 34.6 169.5 35.9 170.1 37C170.8 38.1 171.7 39 172.9 39.7999C174.1 40.5999 175.4 41.1999 177 41.7999C178.5 42.3999 180.2 42.7999 182 43.2L189.2 44.9C192.7 45.7 195.9 46.7 198.9 48C201.8 49.2999 204.4 50.8999 206.5 52.7999C208.7 54.7 210.3 57 211.5 59.5999C212.7 62.1999 213.3 65.2 213.3 68.5C213.3 73.4 212 77.7 209.5 81.3C207 84.9 203.5 87.7 198.8 89.7C194.1 91.7 188.5 92.7 182 92.7C175.5 92.7 169.8 91.7 165 89.7C160.2 87.7 156.4 84.7 153.7 80.8C151 76.9 149.6 71.9999 149.5 66.1999H166C166.2 68.8999 167 71.2 168.3 72.9C169.7 74.7 171.5 76 173.8 77C176.1 77.9 178.7 78.4 181.7 78.4C184.6 78.4 187.1 78 189.2 77.1C191.3 76.2999 193 75.0999 194.2 73.5999C195.4 72.0999 196 70.4 196 68.4C196 66.6 195.5 65.0999 194.4 63.7999C193.3 62.5999 191.8 61.5 189.8 60.7C187.8 59.9 185.3 59 182.3 58.2999L173.5 56.0999C166.7 54.3999 161.3 51.8999 157.4 48.2999C153.5 44.7999 151.5 40.0999 151.5 34.0999C151.5 29.1999 152.8 25 155.4 21.3C158 17.7 161.7 14.8 166.3 12.8C170.9 10.8 176.2 9.69995 182 9.69995C188 9.69995 193.2 10.7 197.7 12.8C202.2 14.8 205.7 17.7 208.1 21.3C210.6 24.9 211.9 29.2 212 34H195.9V34.2Z" fill="#1D1D1B"/>
    <path d="M327.1 23.3999C324.6 23.3999 322.5 22.5999 320.7 20.8999C318.9 19.1999 318 17.1999 318 14.8999C318 12.5999 318.9 10.5999 320.7 8.8999C322.5 7.1999 324.6 6.3999 327.1 6.3999C329.6 6.3999 331.8 7.1999 333.5 8.8999C335.3 10.5999 336.2 12.5999 336.2 14.8999C336.2 17.1999 335.3 19.1999 333.5 20.8999C331.7 22.4999 329.6 23.3999 327.1 23.3999ZM318.6 91.5999V31.0999H335.4V91.4999H318.6V91.5999Z" fill="#1D1D1B"/>
    <path d="M380.9 31.0999V43.6999H344.5V31.0999H380.9Z" fill="#1D1D1B"/>
    <path d="M418.4 92.6999C412.2 92.6999 406.9 91.3999 402.4 88.6999C398 86.0999 394.5 82.3999 392.2 77.6999C389.8 72.9999 388.6 67.5999 388.6 61.5C388.6 55.2999 389.8 49.9 392.2 45.2C394.6 40.5 398 36.9 402.4 34.2C406.8 31.6 412.1 30.2 418.2 30.2C423.5 30.2 428.1 31.1999 432 33.0999C436 34.9999 439.1 37.7 441.4 41.2C443.7 44.7 445 48.7 445.2 53.4H429.4C429 50.4 427.8 47.9999 425.9 46.0999C424 44.1999 421.5 43.2999 418.4 43.2999C415.8 43.2999 413.5 44 411.6 45.4C409.7 46.8 408.2 48.7999 407.1 51.5C406 54.2 405.5 57.4 405.5 61.2C405.5 65.1 406 68.2999 407.1 71C408.2 73.7 409.7 75.7999 411.6 77.1999C413.5 78.5999 415.8 79.3 418.4 79.3C420.3 79.3 422 78.8999 423.6 78.0999C425.1 77.2999 426.4 76.1999 427.4 74.6999C428.4 73.1999 429.1 71.4 429.4 69.3H445.2C444.9 73.9 443.7 78 441.4 81.5C439.1 85 436.1 87.6999 432.1 89.6999C428.1 91.6999 423.8 92.6999 418.4 92.6999Z" fill="#1D1D1B"/>
    <path d="M473 56.6V91.5H456.2V11H472.5V41.8H473.2C474.6 38.2 476.8 35.4 479.8 33.4C482.8 31.4 486.7 30.4 491.2 30.4C495.4 30.4 499.1 31.3 502.2 33.1C505.3 34.9 507.8 37.5 509.5 40.9C511.2 44.3 512.1 48.4 512.1 53.1V91.6H495.3V56.1C495.3 52.4 494.4 49.5 492.5 47.4C490.6 45.3 487.9 44.3 484.5 44.3C482.2 44.3 480.2 44.8 478.5 45.8C476.8 46.8 475.4 48.2 474.4 50C473.4 51.8 473 54 473 56.6Z" fill="#1D1D1B"/>
    <path d="M292.8 31.3998L283.6 71.5998C283.4 71.5998 283.3 71.5998 283.1 71.5998L275.5 40.7998L275.4 40.4998C274.3 35.6998 270 32.0998 264.9 32.0998C259.9 32.0998 255.8 35.3998 254.5 39.9998L254.3 40.8998L246.9 71.7998H246.6C246.5 71.7998 246.4 71.7998 246.4 71.7998L237 31.3998H220.3L234.2 83.4998L234.5 84.3998C235.9 88.4998 240.2 91.4998 245.3 91.4998C250.3 91.4998 254.5 88.5998 256 84.5998C256.2 84.1998 256.3 83.6998 256.4 83.2998L264.5 53.6998H265.2L273.3 83.3998L273.5 84.0998C274.8 88.3998 279.2 91.4998 284.4 91.4998C289.6 91.4998 294 88.2998 295.3 83.9998L295.5 83.3998L309.6 31.2998H292.8V31.3998Z" fill="#1D1D1B"/>
    <path d="M352.8 30.8999C354 18.4999 359.7 11.5999 369.5 11.5999V30.8999V31.5999V72.9999C369.5 74.4999 369.7 75.6999 370.2 76.5999C370.7 77.4999 371.3 78.0999 372.2 78.3999C373.1 78.6999 374 78.8999 375.2 78.8999C376 78.8999 376.8 78.7999 377.6 78.6999C378.4 78.5999 379 78.3999 379.4 78.3999L382 90.8999C381.2 91.1999 380 91.4999 378.5 91.7999C377 92.1999 375.1 92.3999 373 92.3999C369 92.5999 365.4 91.9999 362.4 90.7999C359.4 89.5999 357 87.6999 355.3 85.0999C353.6 82.4999 352.8 79.1999 352.8 75.2999V31.6999V30.8999Z" fill="#1D1D1B"/>
    <path d="M45.5999 51.5C45.5999 51.5 60.2999 25.9 62 22.9C67.2999 13.7 73.7 13.6 79 22.9C81 26.5 101.6 62.1 101.7 62.1C111.2 54.8 112 45.7 103.8 31.6C103.8 31.6 96.9 19.6 93.3 13.6C87.7 4.1 79.7999 0 70.5999 0C61.2 0 53.0999 4.1 47.5999 13.6L25.7 51.5H45.5999Z" fill="#1D1D1B"/>
    <path d="M60.5998 42.8001C60.5998 42.8001 75.2998 68.4001 77.0998 71.4001C82.3998 80.6001 79.1998 86.2001 68.5998 86.1001C64.4998 86.1001 23.2998 85.9001 23.2998 86.0001C24.7998 97.8001 32.2998 103.2 48.4998 103.2C48.4998 103.2 62.2998 103.3 69.3998 103.2C80.4998 103.1 87.9998 98.4001 92.5998 90.4001C97.3998 82.2001 97.8998 73.2001 92.3998 63.6001L70.6998 25.6001L60.5998 42.8001Z" fill="#1D1D1B"/>
    <path d="M60.6999 60.3C60.6999 60.3 31.0999 60.3 27.6999 60.3C17.0999 60.3 13.7999 54.8 19.1999 45.6C21.2999 42 41.9999 6.39999 41.8999 6.39999C30.8999 1.79999 22.4999 5.69999 14.3999 19.7C14.3999 19.7 7.39989 31.6 3.99989 37.8C-1.40011 47.4 -1.10011 56.3 3.49989 64.3C8.19989 72.5 15.7999 77.5 26.7999 77.5L70.5999 77.7L60.6999 60.3Z" fill="#1D1D1B"/>
  </g>
</svg>
