<svg width="731" height="309" viewBox="0 0 731 309" fill="none" xmlns="http://www.w3.org/2000/svg">
<g clip-path="url(#clip0)">
<path d="M304.9 136.2C304.6 133 303.2 130.6 300.8 128.8C298.4 127 295.2 126.2 291.1 126.2C288.3 126.2 286 126.6 284.1 127.4C282.2 128.2 280.7 129.2 279.7 130.6C278.7 132 278.2 133.5 278.2 135.2C278.1 136.6 278.5 137.9 279.1 139C279.8 140.1 280.7 141 281.9 141.8C283.1 142.6 284.4 143.2 286 143.8C287.5 144.4 289.2 144.8 291 145.2L298.2 146.9C301.7 147.7 304.9 148.7 307.9 150C310.8 151.3 313.4 152.9 315.5 154.8C317.7 156.7 319.3 159 320.5 161.6C321.7 164.2 322.3 167.2 322.3 170.5C322.3 175.4 321 179.7 318.5 183.3C316 186.9 312.5 189.7 307.8 191.7C303.1 193.7 297.5 194.7 291 194.7C284.5 194.7 278.8 193.7 274 191.7C269.2 189.7 265.4 186.7 262.7 182.8C260 178.9 258.6 174 258.5 168.2H275C275.2 170.9 276 173.2 277.3 174.9C278.7 176.7 280.5 178 282.8 179C285.1 179.9 287.7 180.4 290.7 180.4C293.6 180.4 296.1 180 298.2 179.1C300.3 178.3 302 177.1 303.2 175.6C304.4 174.1 305 172.4 305 170.4C305 168.6 304.5 167.1 303.4 165.8C302.3 164.6 300.8 163.5 298.8 162.7C296.8 161.9 294.3 161 291.3 160.3L282.5 158.1C275.7 156.4 270.3 153.9 266.4 150.3C262.5 146.8 260.5 142.1 260.5 136.1C260.5 131.2 261.8 127 264.4 123.3C267 119.7 270.7 116.8 275.3 114.8C279.9 112.8 285.2 111.7 291 111.7C297 111.7 302.2 112.7 306.7 114.8C311.2 116.8 314.7 119.7 317.1 123.3C319.6 126.9 320.9 131.2 321 136H304.9V136.2Z" fill="#1D1D1B"/>
<path d="M436.1 125.4C433.6 125.4 431.5 124.6 429.7 122.9C427.9 121.2 427 119.2 427 116.9C427 114.6 427.9 112.6 429.7 110.9C431.5 109.2 433.6 108.4 436.1 108.4C438.6 108.4 440.8 109.2 442.5 110.9C444.3 112.6 445.2 114.6 445.2 116.9C445.2 119.2 444.3 121.2 442.5 122.9C440.7 124.5 438.6 125.4 436.1 125.4ZM427.6 193.6V133.1H444.4V193.5H427.6V193.6Z" fill="#1D1D1B"/>
<path d="M489.9 133.1V145.7H453.5V133.1H489.9Z" fill="#1D1D1B"/>
<path d="M527.4 194.7C521.2 194.7 515.9 193.4 511.4 190.7C507 188.1 503.5 184.4 501.2 179.7C498.8 175 497.6 169.6 497.6 163.5C497.6 157.3 498.8 151.9 501.2 147.2C503.6 142.5 507 138.9 511.4 136.2C515.8 133.6 521.1 132.2 527.2 132.2C532.5 132.2 537.1 133.2 541 135.1C545 137 548.1 139.7 550.4 143.2C552.7 146.7 554 150.7 554.2 155.4H538.4C538 152.4 536.8 150 534.9 148.1C533 146.2 530.5 145.3 527.4 145.3C524.8 145.3 522.5 146 520.6 147.4C518.7 148.8 517.2 150.8 516.1 153.5C515 156.2 514.5 159.4 514.5 163.2C514.5 167.1 515 170.3 516.1 173C517.2 175.7 518.7 177.8 520.6 179.2C522.5 180.6 524.8 181.3 527.4 181.3C529.3 181.3 531 180.9 532.6 180.1C534.1 179.3 535.4 178.2 536.4 176.7C537.4 175.2 538.1 173.4 538.4 171.3H554.2C553.9 175.9 552.7 180 550.4 183.5C548.1 187 545.1 189.7 541.1 191.7C537.1 193.7 532.8 194.7 527.4 194.7Z" fill="#1D1D1B"/>
<path d="M582 158.6V193.5H565.2V113H581.5V143.8H582.2C583.6 140.2 585.8 137.4 588.8 135.4C591.8 133.4 595.7 132.4 600.2 132.4C604.4 132.4 608.1 133.3 611.2 135.1C614.3 136.9 616.8 139.5 618.5 142.9C620.2 146.3 621.1 150.4 621.1 155.1V193.6H604.3V158.1C604.3 154.4 603.4 151.5 601.5 149.4C599.6 147.3 596.9 146.3 593.5 146.3C591.2 146.3 589.2 146.8 587.5 147.8C585.8 148.8 584.4 150.2 583.4 152C582.4 153.8 582 156 582 158.6Z" fill="#1D1D1B"/>
<path d="M401.8 133.4L392.6 173.6C392.4 173.6 392.3 173.6 392.1 173.6L384.5 142.8L384.4 142.5C383.3 137.7 379 134.1 373.9 134.1C368.9 134.1 364.8 137.4 363.5 142L363.3 142.9L355.9 173.8H355.6C355.5 173.8 355.4 173.8 355.4 173.8L346 133.4H329.3L343.2 185.5L343.5 186.4C344.9 190.5 349.2 193.5 354.3 193.5C359.3 193.5 363.5 190.6 365 186.6C365.2 186.2 365.3 185.7 365.4 185.3L373.5 155.7H374.2L382.3 185.4L382.5 186.1C383.8 190.4 388.2 193.5 393.4 193.5C398.6 193.5 403 190.3 404.3 186L404.5 185.4L418.6 133.3H401.8V133.4Z" fill="#1D1D1B"/>
<path d="M461.8 132.9C463 120.5 468.7 113.6 478.5 113.6V132.9V133.6V175C478.5 176.5 478.7 177.7 479.2 178.6C479.7 179.5 480.3 180.1 481.2 180.4C482.1 180.7 483 180.9 484.2 180.9C485 180.9 485.8 180.8 486.6 180.7C487.4 180.6 488 180.4 488.4 180.4L491 192.9C490.2 193.2 489 193.5 487.5 193.8C486 194.2 484.1 194.4 482 194.4C478 194.6 474.4 194 471.4 192.8C468.4 191.6 466 189.7 464.3 187.1C462.6 184.5 461.8 181.2 461.8 177.3V133.7V132.9Z" fill="#1D1D1B"/>
<path d="M154.6 153.5C154.6 153.5 169.3 127.9 171 124.9C176.3 115.7 182.7 115.6 188 124.9C190 128.5 210.6 164.1 210.7 164.1C220.2 156.8 221 147.7 212.8 133.6C212.8 133.6 205.9 121.6 202.3 115.6C196.7 106.1 188.8 102 179.6 102C170.2 102 162.1 106.1 156.6 115.6L134.7 153.5H154.6Z" fill="#1D1D1B"/>
<path d="M169.6 144.8C169.6 144.8 184.3 170.4 186.1 173.4C191.4 182.6 188.2 188.2 177.6 188.1C173.5 188.1 132.3 187.9 132.3 188C133.8 199.8 141.3 205.2 157.5 205.2C157.5 205.2 171.3 205.3 178.4 205.2C189.5 205.1 197 200.4 201.6 192.4C206.4 184.2 206.9 175.2 201.4 165.6L179.7 127.6L169.6 144.8Z" fill="#1D1D1B"/>
<path d="M169.7 162.3C169.7 162.3 140.1 162.3 136.7 162.3C126.1 162.3 122.8 156.8 128.2 147.6C130.3 144 151 108.4 150.9 108.4C139.9 103.8 131.5 107.7 123.4 121.7C123.4 121.7 116.4 133.6 113 139.8C107.6 149.4 107.9 158.3 112.5 166.3C117.2 174.5 124.8 179.5 135.8 179.5L179.6 179.7L169.7 162.3Z" fill="#1D1D1B"/>
</g>
<defs>
<clipPath id="clip0">
<rect width="512.1" height="103.2" fill="white" transform="translate(109 102)"/>
</clipPath>
</defs>
</svg>
